<?xml version="1.0" encoding="UTF-8"?>
<svg fill="#fff" version="1.1" viewBox="0 0 20 20" xmlns="http://www.w3.org/2000/svg" xmlns:cc="http://creativecommons.org/ns#" xmlns:dc="http://purl.org/dc/elements/1.1/" xmlns:rdf="http://www.w3.org/1999/02/22-rdf-syntax-ns#">
 <metadata>
  <rdf:RDF>
   <cc:Work rdf:about="">
    <dc:format>image/svg+xml</dc:format>
    <dc:type rdf:resource="http://purl.org/dc/dcmitype/StillImage"/>
    <dc:title/>
   </cc:Work>
  </rdf:RDF>
 </metadata>
 <path d="m10 0c-1.8564 8.1896e-7 -3.5493 0.6951-4.8379 1.8359l2.1074 2.1074a4.3395 4.3395 0 0 1 2.7305-0.97656 4.3395 4.3395 0 0 1 4.3398 4.3379 4.3395 4.3395 0 0 1-0.97461 2.7383l2.6133 2.6133c0.78971-1.7611 1.3281-3.628 1.3281-5.3516 0-4.0348-3.2718-7.3047-7.3066-7.3047zm-8.2246 1-1.2754 1.2754 2.6133 2.6133c-0.26587 0.75746-0.41992 1.5677-0.41992 2.416 0 5.5768 5.5913 12.695 7.3066 12.695 0.83431 0 2.5854-1.6892 4.1641-4.0605l4.0605 4.0605 1.2754-1.2695-4.373-4.375c4.21e-4 -7.56e-4 0.001532-0.001197 0.001953-0.001953l-3.1738-3.1738a4.3395 4.3395 0 0 1-0.001953 0.001953l-5.8242-5.8262a4.3395 4.3395 0 0 1 0-0.0019532l-4.3535-4.3535zm3.8906 6.4414 4.1973 4.1973a4.3395 4.3395 0 0 1-4.1973-4.1973z" fill="#fff" stroke-width=".041076"/>
</svg>
