<svg viewBox="0 0 422.53 277.53" xmlns="http://www.w3.org/2000/svg"><g fill="none" stroke="#fff" stroke-linejoin="round" stroke-miterlimit="5.2" stroke-width="8.533" transform="translate(-855.04 -78.397)"><rect x="859.31" y="227.66" width="124" height="124" rx="16" ry="16"/><rect x="1004.3" y="227.66" width="124" height="124" rx="16" ry="16"/><rect x="1004.3" y="82.664" width="124" height="124" rx="16" ry="16"/><rect x="1149.3" y="227.66" width="124" height="124" rx="16" ry="16"/></g><g fill="#23b5e9" stroke="#23b5e9"><path d="M67.92 210.363h33.422" stroke-width="20.344"/><path transform="matrix(0 1.4731 1.0164 0 -75.55 -260.707)" d="M320 123.79l3.712 6.43 3.711 6.428h-14.846l3.711-6.429z" stroke-width="16"/><path d="M211.03 209.633v-33.422" stroke-width="20.344"/><path transform="matrix(1.4731 0 0 -1.0164 -260.04 353.093)" d="M320 123.79l3.712 6.43 3.711 6.428h-14.846l3.711-6.429z" stroke-width="16"/><path d="M357.4 210.363h-33.422" stroke-width="20.344"/><path transform="matrix(0 1.4731 -1.0164 0 500.86 -260.707)" d="M320 123.79l3.712 6.43 3.711 6.428h-14.846l3.711-6.429z" stroke-width="16"/><path d="M211.02 65.113v33.422" stroke-width="20.344"/><path transform="matrix(1.4731 0 0 1.0164 -260.05 -78.351)" d="M320 123.79l3.712 6.43 3.711 6.428h-14.846l3.711-6.429z" stroke-width="16"/></g></svg>