<svg xmlns="http://www.w3.org/2000/svg" height="74.003" width="60.533" viewBox="0 0 16.016109 19.580225"><g stroke-width=".265"><path d="M16.009 3.006L10.713 0l-.003 4.103 5.3 3.015z" fill="#29abe2"/><path d="M10.712 0L.005 6.042v4.161l8.966-5.152 1.738-.949" fill="#3c66b0"/><path d="M5.446 9.267L.006 6.05l-.003 4.158 5.444 3.19z" fill="#23b5e9"/><path d="M16.009 9.264l-5.306-3.223.003 4.433 5.31 2.926z" fill="#29abe2"/><path d="M5.452 15.459L0 12.251v4.183l5.445 3.146z" fill="#23b5e9"/><path d="M16.013 9.264l-10.57 6.192v4.124l8.88-5.15 1.69-1.035m-5.31-7.354l-5.26 3.23-.003 4.13 5.263-2.93.003.004" fill="#3c66b0"/></g></svg>