<svg width="528.51" height="291.03" viewBox="0 0 528.51166 291.02734" xmlns="http://www.w3.org/2000/svg"><path d="M398.712 33.699c-.172 0 .173.003 1.537.007h.033c4-.007-1.051-.01-1.562-.007zm1.537.525c-13.735 0-24.969 11.24-24.969 24.975v94.907h-.518v.175c0-.097-.044.271-.034.175 0-.096-.056.27-.033.175.033-.094-.083.26-.053.169.033-.092-.106.25-.066.162s-.133.247-.083.162c.046-.085-.146.23-.09.149.053-.081-.166.218-.103.142.06-.075-.182.2-.116.13.066-.07-.202.188-.13.123s-.212.169-.136.11c.08-.058-.225.156-.142.104.083-.051-.243.128-.156.084.086-.044-.253.108-.163.072s-.262.093-.17.065c.094-.03-.262.06-.169.038.097-.02-.272.046-.176.034.097-.014-.272.023-.175.02s-.273-.004-.176 0-.273-.024-.176-.014a1.648 1.648 0 0 0-.176-.033c.096.02-.27-.073-.176-.045.093.026-.26-.088-.17-.052s-.242-.121-.156-.078-.239-.135-.156-.084-.229-.155-.149-.097-.21-.174-.136-.11-.196-.187-.13-.118c.067.07-.179-.21-.116-.136s-.166-.216-.11-.136-.139-.24-.089-.155a2.233 2.233 0 0 0-.083-.156l-.467.22c-4.07-8.797-11.536-18.112-19.82-20.222a.259.259 0 0 1-.04-.013c-5.653-1.535-12.257-.043-17.875 3.358-5.61 3.397-10.098 8.668-11.684 13.927-1.634 5.997-.616 13.091 2.93 22.226 0 .023.003.026 0 .02 17.838 42.882 39.793 83.975 66.326 115.03.767.882 2.046 1.467 3.216 1.472h93.038a4.408 4.408 0 0 0 2.542-.875.259.259 0 0 1 .033-.014c9.324-6.906 17.194-19.048 23.737-33.753 6.536-14.689 11.565-31.813 14.134-48.466 2.568-16.65 2.527-32.117-1.025-45.698-3.333-12.75-12.064-22.961-25.046-24.534-3.142 0-6.455.27-9.116.882l-.116-.506c.26-.06-.444.069-.182.033.262-.036-.447.034-.183.02.266-.013-.446-.01-.183 0 .266.01-.444-.045-.182-.013.262.033-.441-.088-.183-.033.26.056-.428-.124-.176-.046.253.079-.42-.165-.176-.064.246.1-.398-.193-.162-.072.235.121-.387-.232-.163-.09.226.141-.36-.265-.15-.104.213.16-.332-.295-.135-.117.195.179-.31-.324-.13-.13.18.195-.285-.352-.123-.142.163.21-.245-.373-.103-.15.143.224-.215-.39-.09-.155.124.235-.178-.407-.079-.162l-.48.194c-1.636-3.913-3.921-7.113-6.431-8.895-4.685-3.324-9.354-4.321-13.097-4.26-3.474.059-6.665 1.31-9.635 3.404a.261.261 0 0 1-.325-.408c-.004-.007-.337.203-.15.097.223-.125-.42.193-.189.09.233-.102-.436.157-.196.078.243-.078-.455.106-.206.052.25-.054-.46.061-.205.033.252-.03-.462.023-.206.02s-.46-.035-.206-.013c.252.023-.457-.073-.206-.027.25.048-.45-.123-.206-.051.243.072-.43-.161-.195-.065s-.413-.21-.19-.091c.226.119-.393-.251-.182-.11.212.14-.365-.285-.17-.124.196.162-.334-.323-.156-.142.18.18-.302-.353-.142-.156.159.198-.263-.381-.123-.169l-.428.286c-1.487-2.268-2.958-4.377-4.305-5.356-4.585-3.33-9.432-4.24-13.337-4.24-3.09 0-6.217.864-9.343 2.165l-.193-.48c.11-.044-.235.084-.122.046s-.236.07-.123.039c.113-.03-.24.057-.123.033.116-.023-.24.037-.123.02.116-.017-.246.03-.13.02s-.245.01-.129.007c.116-.003-.239-.004-.123 0s-.245-.024-.13-.014-.245-.033-.129-.013-.239-.051-.122-.026c.112.026-.236-.066-.123-.034.113.034-.233-.078-.123-.039s-.226-.091-.116-.045-.223-.111-.116-.058-.22-.118-.117-.059c.103.06-.209-.13-.11-.065.097.065-.198-.148-.102-.077.093.07-.186-.155-.096-.078s-.183-.173-.097-.09c.083.081-.162-.178-.083-.091s-.156-.19-.083-.097-.146-.2-.076-.104c.066.096-.133-.203-.07-.104s-.12-.213-.066-.11c.056.104-.106-.223-.06-.117.05.107-.086-.226-.046-.116.043.11-.08-.236-.047-.124.037.112-.063-.237-.033-.123.033.114-.053-.238-.033-.123.033.116-.033-.246-.033-.13v-.253h-.52V59.235c-.135-8.546-3.483-14.654-8.233-18.796-4.742-4.134-10.979-6.227-16.709-6.217a.259.259 0 0 1-.033 0zm58.923 92.624a.259.259 0 0 1 .033-.02c.033-.024-.033.02-.033.02zm-58.923-84.046a16.324 16.324 0 0 1 16.397 16.397v72.39a.259.259 0 0 1 0 .04c0 .884.376 1.853.998 2.645s1.47 1.397 2.334 1.595c.864.198 1.892.026 2.795-.415.896-.438 1.664-1.136 2.042-1.932a.259.259 0 0 1 0-.02.259.259 0 0 1 0-.027c1.157-2.404 3.317-4.153 5.7-5.543 2.384-1.392 5.014-2.4 7.637-2.4 2.379 0 5.61.693 8.319 2.66 1.142.828 2.43 1.961 3.313 3.675.88 1.712 1.316 3.842 1.316 6.62 0 .867.387 1.814.998 2.587.612.773 1.441 1.366 2.289 1.569.846.203 1.855.05 2.75-.363.885-.41 1.654-1.072 2.054-1.842v-.02a.259.259 0 0 1 0-.033c.003-.006 0-.006 0-.013 1.443-2.878 2.623-4.808 4.299-6.16 1.704-1.373 3.757-1.75 5.712-1.782 1.082-.02 2.132.196 3.54.596 1.414.402 3.023 1.002 4.48 2.036 1.22.865 2.548 2.002 3.475 3.722.928 1.717 1.388 3.863 1.388 6.593a.259.259 0 0 1 0 .027c-.033 1.538 1.154 3.34 2.58 3.961 1.426.621 3.524.254 4.656-.817a.259.259 0 0 1 .37.357c.132-.118.355-.31.039-.033-.488.43.569-.463.066-.052-.504.41.578-.443.057-.052-.519.392.598-.417.066-.045-.533.371.612-.39.067-.039-.547.351.624-.376.063-.046-.56.331.643-.348.073-.038-.572.309.654-.32.073-.034l-.233-.466c3.037-1.497 6.157-1.949 9.72-1.88v.233a.259.259 0 0 1 .285-.214c4.589.584 8.427 2.456 11.294 5.608 2.864 3.15 4.77 7.394 6.29 12.747 3.117 10.99 3.16 26.066.712 41.936-2.445 15.852-7.254 32.423-13.447 46.339-5.82 13.081-12.87 23.334-19.554 28.949a.262.262 0 0 1-.337-.402c.232-.195-.312.243-.073.058s-.319.233-.073.059c.249-.175-.334.208-.077.045.256-.163-.34.204-.08.052.263-.152-.346.185-.076.045.27-.14-.359.168-.083.04.276-.13-.364.148-.083.032.28-.116-.369.143-.083.04.286-.105-.373.117-.083.026.29-.092-.383.104-.09.026.293-.078-.38.086-.082.02.295-.066-.39.073-.09.02.299-.053-.391.053-.09.013.303-.04-.392.04-.089.014.302-.027-.394.02-.09.006.302-.013-.394 0-.09 0v.52H396.66v-.52c.295 0-.404-.016-.11 0 .293.017-.409-.045-.116-.013.292.033-.4-.06-.11-.013.293.048-.397-.083-.109-.02.289.063-.394-.112-.11-.033.283.079-.388-.127-.109-.033s-.377-.149-.103-.04c.272.11-.37-.169-.103-.045.266.124-.363-.19-.103-.052s-.349-.203-.096-.051c.252.152-.34-.23-.096-.065.242.165-.325-.243-.09-.065.233.178-.315-.262-.09-.071.223.19-.298-.274-.082-.072.212.203-.28-.298-.077-.084s-.269-.309-.076-.084l-.39.337c-24.522-28.928-47.655-72.895-62.8-110.045a.259.259 0 0 1 0-.045c-3.238-8.335-3.755-13.415-2.768-16.942l.13.039a.259.259 0 0 1-.054-.266c3.018-7.875 11.207-12.28 18.667-11.12l-.08.506c-.652-.101.702.132.053.014-.65-.12.698.142.053.006-.646-.135.695.165.054.014-.643-.152.69.181.053.013-.639-.169.686.198.053.013-.634-.185.68.22.053.02-.63-.201.675.23.053.013a.259.259 0 0 1 .232-.46c4.077 1.535 6.852 3.828 8.85 6.4 1.996 2.567 3.273 5.31 4.785 8.013l-.033.013a.259.259 0 0 1 .083.098l13.642 27.4a.259.259 0 0 1 .033.045c.396.775 1.166 1.442 2.062 1.854.895.413 1.907.566 2.755.363.847-.203 1.678-.796 2.289-1.569.61-.773.995-1.716.998-2.587V59.202c0-9.112 7.277-16.398 16.39-16.398zm15.872 88.022v.792c-.002.52.002.75 0 .376 0-.12-.003-.04 0-.37a.259.259 0 0 1 0-.02v-.013c-.003-.329 0-.25 0-.37-.002-.127 0-.44 0-.395zm9.167 2.899a.259.259 0 0 1 0 .006c.002-.003 0-.003 0-.006zm-75.119.674c.11.02.047.013.383.071 0 .001 0 0 0 0a.259.259 0 0 1 .033 0 .259.259 0 0 1 0 .007c.206.033.116.013.232.033l.123.02c.388.06.153.02-.363-.065 0-.001 0 .002-.033 0-.166-.026-.233-.042-.37-.064 0-.002-.033.001-.033 0zm131.45 10.218v.785c-.002.516.003.745 0 .382 0-.115-.002-.044 0-.37a.259.259 0 0 1 0-.006.259.259 0 0 1 0-.02v-.006c-.002-.335 0-.258 0-.376v-.39zm18.108 1.92v.2h-.033-.033-.033-.033s.036.007.053.007c.002 0 0 0 0 0h.033c.002 0 0 0 0 0 .001 0 0 0 0 0 .033 0 .033.007.053.007h.066c.003 0 0 0 0 0s0 .006.034.006c0 .001 0-.001 0 0 .002 0 0 0 0 0 0 .001 0 .007.033.007.002 0 0 0 0 0h.033s0-.007-.033-.007c-.001 0 0 0 0 0v-.006h-.033c-.002 0 0 0 0 0a.259.259 0 0 1-.17-.214zm.24.226c0 .002 0 .007.033.007 0 0 0-.007-.034-.007v-.006c.002 0 0 .006 0 .006zm.052.007c.004 0 0 .006 0 .006l.073.007-.033-.007h-.033s0-.006-.033-.006zm-170.348 7.69a.259.259 0 0 1-.156.13l.103.032c-.378 1.291.42-1.327 0-.045-.408 1.282.457-1.317.033-.046-.438 1.272.48-1.306 0-.045-.25.674-.126.317 0-.027zm31.77 3.196c0 .016.043.1.066.149 0-.017-.033-.05-.033-.059v.034c0 .03.033.044.046.077.003.007.003.007 0 .014v.006c.002.004 0 .003 0 .007 0 .023 0 .033.033.058 0 .02 0 .027.033.046v.026c0 .02 0 .027.034.046v.026c.033.061.043.098.066.143.05.1.033.044-.053-.117.08.15.083.147-.033-.052 0-.02 0-.013-.033-.038a.259.259 0 0 1-.034-.04v-.013a.259.259 0 0 1 0-.045l-.033.007c0-.027-.002-.01 0-.034-.033-.046-.033-.061-.046-.084-.034-.04-.08-.174-.073-.156zm.033.09c-.003-.006 0-.013 0-.02-.003-.003-.034-.03-.034-.033 0 .014.034.035.034.052zm-29.436 12.805c0 .024.076.157.11.22.036.074.033.045.222.442v.006a.259.259 0 0 1 0 .014.259.259 0 0 1 0 .006c.002.004-.002.002 0 .007a.259.259 0 0 1 0 .007c.17.33.143.273.196.37.116.22.066.123-.123-.254-.033-.064-.036-.083-.07-.149-.15-.299-.298-.581-.344-.668zm157.864 119.566c-.034.016-.15.1-.213.143-.033.02-.106.075-.206.142l.422-.285zm-.428.292c-.1.067-.033.01-.203.13-.002.001.003.003 0 .006.09-.06.116-.08.203-.136zm-.203.136c0 .002-.002-.003 0 0a.259.259 0 0 1 0 .006.259.259 0 0 1-.033.014c-.09.061-.036.033-.103.077l-.143.098c.107-.073.16-.104.286-.188.003-.003.003-.004 0-.007z" color="#000" fill="#fff" style="text-indent:0;text-transform:none"/><path d="M361.47 82.865a46.117 47.459 0 0 1 7.778-62.076 46.117 47.459 0 0 1 60.82-.155 46.117 47.459 0 0 1 8.077 62.036" fill="none" stroke="#23b5e9" stroke-linecap="round" stroke-width="17.998"/><g><g fill="#23b5e9" stroke="#23b5e9"><path d="M33.906 43.912h33.422" stroke-width="20.344"/><path transform="matrix(0 1.4731 1.0164 0 -109.56 -427.158)" d="M320 123.79l3.712 6.43 3.711 6.428h-14.846l3.711-6.429z" stroke-width="16"/></g><g fill="#23b5e9" stroke="#23b5e9"><path d="M170.73 46.022h-33.421" stroke-width="20.344"/><path transform="matrix(0 1.4731 -1.0164 0 314.19 -425.048)" d="M320 123.79l3.712 6.43 3.711 6.428h-14.846l3.711-6.429z" stroke-width="16"/></g><path d="M100.932 33.766c-.172 0 .173.003 1.537.007h.033c4-.007-1.051-.01-1.562-.007zm1.537.525c-13.735 0-24.969 11.24-24.969 24.975v94.907h-.518v.175c0-.097-.044.271-.034.175 0-.096-.056.27-.033.175.033-.094-.083.26-.053.169.033-.092-.106.25-.066.162s-.133.247-.083.162c.046-.085-.146.23-.09.149.053-.081-.166.218-.103.142.06-.075-.182.2-.116.13.066-.07-.202.188-.13.123s-.212.169-.136.11c.08-.058-.225.156-.142.104.083-.051-.243.128-.156.084.086-.044-.253.108-.163.072s-.262.093-.17.065c.094-.03-.262.06-.169.038.097-.02-.272.046-.176.034.097-.014-.272.023-.175.02s-.273-.004-.176 0-.273-.024-.176-.014a1.648 1.648 0 0 0-.176-.033c.096.02-.27-.073-.176-.045.093.026-.26-.088-.17-.052s-.242-.121-.156-.078-.239-.135-.156-.084-.229-.155-.149-.097-.21-.174-.136-.11-.196-.187-.13-.118c.067.07-.179-.21-.116-.136s-.166-.216-.11-.136-.139-.24-.089-.155a2.233 2.233 0 0 0-.083-.156l-.467.22c-4.07-8.797-11.536-18.112-19.82-20.222a.259.259 0 0 1-.04-.013c-5.653-1.535-12.257-.043-17.875 3.358-5.61 3.397-10.098 8.668-11.684 13.927-1.634 5.997-.616 13.091 2.93 22.226 0 .023.003.026 0 .02 17.838 42.882 39.793 83.975 66.326 115.03.767.882 2.046 1.467 3.216 1.472h93.038a4.408 4.408 0 0 0 2.542-.875.259.259 0 0 1 .033-.014c9.324-6.906 17.194-19.048 23.737-33.753 6.536-14.689 11.565-31.813 14.134-48.466 2.568-16.65 2.527-32.117-1.025-45.698-3.333-12.75-12.064-22.961-25.046-24.534-3.142 0-6.455.27-9.116.882l-.116-.506c.26-.06-.444.069-.182.033.262-.036-.447.034-.183.02.266-.013-.446-.01-.183 0 .266.01-.444-.045-.182-.013.262.033-.441-.088-.183-.033.26.056-.428-.124-.176-.046.253.079-.42-.165-.176-.064.246.1-.398-.193-.162-.072.235.121-.387-.232-.163-.09.226.141-.36-.265-.15-.104.213.16-.332-.295-.135-.117.195.179-.31-.324-.13-.13.18.195-.285-.352-.123-.142.163.21-.245-.373-.103-.15.143.224-.215-.39-.09-.155.124.235-.178-.407-.079-.162l-.48.194c-1.636-3.913-3.921-7.113-6.431-8.895-4.685-3.324-9.354-4.321-13.097-4.26-3.474.059-6.665 1.31-9.635 3.404a.261.261 0 0 1-.325-.408c-.004-.007-.337.203-.15.097.223-.125-.42.193-.189.09.233-.102-.436.157-.196.078.243-.078-.455.106-.206.052.25-.054-.46.061-.205.033.252-.03-.462.023-.206.02s-.46-.035-.206-.013c.252.023-.457-.073-.206-.027.25.048-.45-.123-.206-.051.243.072-.43-.161-.195-.065s-.413-.21-.19-.091c.226.119-.393-.251-.182-.11.212.14-.365-.285-.17-.124.196.162-.334-.323-.156-.142.18.18-.302-.353-.142-.156.159.198-.263-.381-.123-.169l-.428.286c-1.487-2.268-2.958-4.377-4.305-5.356-4.585-3.33-9.432-4.24-13.337-4.24-3.09 0-6.217.864-9.343 2.165l-.193-.48c.11-.044-.235.084-.122.046s-.236.07-.123.039c.113-.03-.24.057-.123.033.116-.023-.24.037-.123.02.116-.017-.246.03-.13.02s-.245.01-.129.007c.116-.003-.239-.004-.123 0s-.245-.024-.13-.014-.245-.033-.129-.013-.239-.051-.122-.026c.112.026-.236-.066-.123-.034.113.034-.233-.078-.123-.039s-.226-.091-.116-.045-.223-.111-.116-.058-.22-.118-.117-.059c.103.06-.209-.13-.11-.065.097.065-.198-.148-.102-.077.093.07-.186-.155-.096-.078s-.183-.173-.097-.09c.083.081-.162-.178-.083-.091s-.156-.19-.083-.097-.146-.2-.076-.104c.066.096-.133-.203-.07-.104s-.12-.213-.066-.11c.056.104-.106-.223-.06-.117.05.107-.086-.226-.046-.116.043.11-.08-.236-.047-.124.037.112-.063-.237-.033-.123.033.114-.053-.238-.033-.123.033.116-.033-.246-.033-.13v-.253h-.52V59.302c-.135-8.546-3.483-14.654-8.233-18.796-4.742-4.134-10.979-6.227-16.709-6.217a.259.259 0 0 1-.033 0zm58.923 92.624a.259.259 0 0 1 .033-.02c.033-.024-.033.02-.033.02zm-58.923-84.046a16.324 16.324 0 0 1 16.397 16.397v72.39a.259.259 0 0 1 0 .04c0 .884.376 1.853.998 2.645s1.47 1.397 2.334 1.595c.864.198 1.892.026 2.795-.415.896-.438 1.664-1.136 2.042-1.932a.259.259 0 0 1 0-.02.259.259 0 0 1 0-.027c1.157-2.404 3.317-4.153 5.7-5.543 2.384-1.392 5.014-2.4 7.637-2.4 2.379 0 5.61.693 8.319 2.66 1.142.828 2.43 1.961 3.313 3.675.88 1.712 1.316 3.842 1.316 6.62 0 .867.387 1.814.998 2.587.612.773 1.441 1.366 2.289 1.569.846.203 1.855.05 2.75-.363.885-.41 1.654-1.072 2.054-1.842v-.02a.259.259 0 0 1 0-.033c.003-.006 0-.006 0-.013 1.443-2.878 2.623-4.808 4.299-6.16 1.704-1.373 3.757-1.75 5.712-1.782 1.082-.02 2.132.196 3.54.596 1.414.402 3.023 1.002 4.48 2.036 1.22.865 2.548 2.002 3.475 3.722.928 1.717 1.388 3.863 1.388 6.593a.259.259 0 0 1 0 .027c-.033 1.538 1.154 3.34 2.58 3.961 1.426.621 3.524.254 4.656-.817a.259.259 0 0 1 .37.357c.132-.118.355-.31.039-.033-.488.43.569-.463.066-.052-.504.41.578-.443.057-.052-.519.392.598-.417.066-.045-.533.371.612-.39.067-.039-.547.351.624-.376.063-.046-.56.331.643-.348.073-.038-.572.309.654-.32.073-.034l-.233-.466c3.037-1.497 6.157-1.949 9.72-1.88v.233a.259.259 0 0 1 .285-.214c4.589.584 8.427 2.456 11.294 5.608 2.864 3.15 4.77 7.394 6.29 12.747 3.117 10.99 3.16 26.066.712 41.936-2.445 15.852-7.254 32.423-13.447 46.339-5.82 13.081-12.87 23.334-19.554 28.949a.262.262 0 0 1-.337-.402c.232-.195-.312.243-.073.058s-.319.233-.073.059c.249-.175-.334.208-.077.045.256-.163-.34.204-.08.052.263-.152-.346.185-.076.045.27-.14-.359.168-.083.04.276-.13-.364.148-.083.032.28-.116-.369.143-.083.04.286-.105-.373.117-.083.026.29-.092-.383.104-.09.026.293-.078-.38.086-.082.02.295-.066-.39.073-.09.02.299-.053-.391.053-.09.013.303-.04-.392.04-.089.014.302-.027-.394.02-.09.006.302-.013-.394 0-.09 0v.52H98.88v-.52c.295 0-.404-.016-.11 0 .293.017-.409-.045-.116-.013.292.033-.4-.06-.11-.013.293.048-.397-.083-.109-.02.289.063-.394-.112-.11-.033.283.079-.388-.127-.109-.033s-.377-.149-.103-.04c.272.11-.37-.169-.103-.045.266.124-.363-.19-.103-.052s-.349-.203-.096-.051c.252.152-.34-.23-.096-.065.242.165-.325-.243-.09-.065.233.178-.315-.262-.09-.071.223.19-.298-.274-.082-.072.212.203-.28-.298-.077-.084s-.269-.309-.076-.084l-.39.337c-24.522-28.928-47.655-72.895-62.8-110.045a.259.259 0 0 1 0-.045c-3.238-8.335-3.755-13.415-2.768-16.942l.13.039a.259.259 0 0 1-.054-.266c3.018-7.875 11.207-12.28 18.667-11.12l-.08.506c-.652-.101.702.132.053.014-.65-.12.698.142.053.006-.646-.135.695.165.054.014-.643-.152.69.181.053.013-.639-.169.686.198.053.013-.634-.185.68.22.053.02-.63-.201.675.23.053.013a.259.259 0 0 1 .232-.46c4.077 1.535 6.852 3.828 8.85 6.4 1.996 2.567 3.273 5.31 4.785 8.013l-.033.013a.259.259 0 0 1 .083.098l13.642 27.4a.259.259 0 0 1 .033.045c.396.775 1.166 1.442 2.062 1.854.895.413 1.907.566 2.755.363.847-.203 1.678-.796 2.289-1.569.61-.773.995-1.716.998-2.587V59.27c0-9.112 7.277-16.398 16.39-16.398zm15.872 88.022v.792c-.002.52.002.75 0 .376 0-.12-.003-.04 0-.37a.259.259 0 0 1 0-.02v-.013c-.003-.329 0-.25 0-.37-.002-.127 0-.44 0-.395zm9.167 2.899a.259.259 0 0 1 0 .006c.002-.003 0-.003 0-.006zm-75.119.674c.11.02.047.013.383.071 0 .001 0 0 0 0a.259.259 0 0 1 .033 0 .259.259 0 0 1 0 .007c.206.033.116.013.232.033l.123.02c.388.06.153.02-.363-.065 0-.001 0 .002-.033 0-.166-.026-.233-.042-.37-.064 0-.002-.033.001-.033 0zm131.45 10.218v.785c-.002.516.003.745 0 .382 0-.115-.002-.044 0-.37a.259.259 0 0 1 0-.006.259.259 0 0 1 0-.02v-.006c-.002-.335 0-.258 0-.376v-.39zm18.108 1.92v.2h-.033-.033-.033-.033s.036.007.053.007c.002 0 0 0 0 0h.033c.002 0 0 0 0 0 .001 0 0 0 0 0 .033 0 .033.007.053.007h.066c.003 0 0 0 0 0s0 .006.034.006c0 .001 0-.001 0 0 .002 0 0 0 0 0 0 .001 0 .007.033.007.002 0 0 0 0 0h.033s0-.007-.033-.007c-.001 0 0 0 0 0v-.006h-.033c-.002 0 0 0 0 0a.259.259 0 0 1-.17-.214zm.24.226c0 .002 0 .007.033.007 0 0 0-.007-.034-.007v-.006c.002 0 0 .006 0 .006zm.052.007c.004 0 0 .006 0 .006l.073.007-.033-.007h-.033s0-.006-.033-.006zm-170.348 7.69a.259.259 0 0 1-.156.13l.103.032c-.378 1.291.42-1.327 0-.045-.408 1.282.457-1.317.033-.046-.438 1.272.48-1.306 0-.045-.25.674-.126.317 0-.027zm31.77 3.196c0 .016.043.1.066.149 0-.017-.033-.05-.033-.059v.034c0 .03.033.044.046.077.003.007.003.007 0 .014v.006c.002.004 0 .003 0 .007 0 .023 0 .033.033.058 0 .02 0 .027.033.046v.026c0 .02 0 .027.034.046v.026c.033.061.043.098.066.143.05.1.033.044-.053-.117.08.15.083.147-.033-.052 0-.02 0-.013-.033-.038a.259.259 0 0 1-.034-.04v-.013a.259.259 0 0 1 0-.045l-.033.007c0-.027-.002-.01 0-.034-.033-.046-.033-.061-.046-.084-.034-.04-.08-.174-.073-.156zm.033.09c-.003-.006 0-.013 0-.02-.003-.003-.034-.03-.034-.033 0 .014.034.035.034.052zm-29.436 12.805c0 .024.076.157.11.22.036.074.033.045.222.442v.006a.259.259 0 0 1 0 .014.259.259 0 0 1 0 .006c.002.004-.002.002 0 .007a.259.259 0 0 1 0 .007c.17.33.143.273.196.37.116.22.066.123-.123-.254-.033-.064-.036-.083-.07-.149-.15-.299-.298-.581-.344-.668zm157.864 119.566c-.034.016-.15.1-.213.143-.033.02-.106.075-.206.142l.422-.285zm-.428.292c-.1.067-.033.01-.203.13-.002.001.003.003 0 .006.09-.06.116-.08.203-.136zm-.203.136c0 .002-.002-.003 0 0a.259.259 0 0 1 0 .006.259.259 0 0 1-.033.014c-.09.061-.036.033-.103.077l-.143.098c.107-.073.16-.104.286-.188.003-.003.003-.004 0-.007z" color="#000" fill="#fff" style="text-indent:0;text-transform:none"/></g></svg>